<?xml version="1.0" encoding="UTF-8" standalone="no"?>
<!DOCTYPE svg PUBLIC "-//W3C//DTD SVG 1.1//EN" "http://www.w3.org/Graphics/SVG/1.1/DTD/svg11.dtd">
<svg width="100%" height="100%" viewBox="0 0 40 40" version="1.1" xmlns="http://www.w3.org/2000/svg" xmlns:xlink="http://www.w3.org/1999/xlink" xml:space="preserve" xmlns:serif="http://www.serif.com/" style="fill-rule:evenodd;clip-rule:evenodd;stroke-linejoin:round;stroke-miterlimit:2;">
    <path d="M30.918,9.305L30.891,9.289L30.827,9.269C30.853,9.291 30.885,9.303 30.918,9.305Z" style="fill:white;fill-rule:nonzero;"/>
    <path d="M31.318,12.162L31.287,12.171L31.318,12.162Z" style="fill:white;fill-rule:nonzero;"/>
    <path d="M30.93,9.3C30.926,9.3 30.922,9.299 30.918,9.298L30.918,9.305C30.923,9.305 30.927,9.303 30.93,9.3Z" style="fill:white;fill-rule:nonzero;"/>
    <path d="M30.918,9.305L30.922,9.305L30.922,9.302L30.918,9.305Z" style="fill:white;fill-rule:nonzero;"/>
    <path d="M31.294,12.157L31.34,12.131L31.357,12.121L31.373,12.104C31.343,12.117 31.317,12.135 31.294,12.157Z" style="fill:white;fill-rule:nonzero;"/>
    <path d="M30.998,9.367L30.953,9.324L30.922,9.307C30.939,9.337 30.966,9.358 30.998,9.367Z" style="fill:white;fill-rule:nonzero;"/>
    <path d="M19.625,37.097C19.589,37.113 19.558,37.137 19.533,37.168L19.562,37.15C19.581,37.132 19.609,37.111 19.625,37.097Z" style="fill:white;fill-rule:nonzero;"/>
    <path d="M26.229,35.798C26.229,35.757 26.21,35.765 26.214,35.91C26.214,35.898 26.219,35.886 26.221,35.875C26.224,35.849 26.226,35.824 26.229,35.798Z" style="fill:white;fill-rule:nonzero;"/>
    <path d="M25.544,37.097C25.508,37.113 25.477,37.137 25.452,37.168L25.481,37.15C25.5,37.132 25.528,37.111 25.544,37.097Z" style="fill:white;fill-rule:nonzero;"/>
    <path d="M14.974,37.406C14.947,37.382 14.913,37.367 14.877,37.361C14.907,37.375 14.936,37.389 14.955,37.4L14.974,37.406Z" style="fill:white;fill-rule:nonzero;"/>
    <path d="M13.928,36.404C13.924,36.362 13.91,36.321 13.89,36.283C13.904,36.322 13.917,36.362 13.927,36.402L13.928,36.404Z" style="fill:white;fill-rule:nonzero;"/>
    <path d="M20.958,18.478C19.521,19.093 17.89,19.791 15.777,19.791C14.893,19.789 14.013,19.667 13.162,19.43L14.623,34.436C14.675,35.063 14.961,35.648 15.424,36.074C15.887,36.5 16.493,36.737 17.123,36.737C17.123,36.737 19.195,36.844 19.886,36.844C20.631,36.844 22.862,36.737 22.862,36.737C23.491,36.737 24.098,36.5 24.56,36.073C25.023,35.647 25.309,35.063 25.361,34.436L26.926,17.854C26.226,17.615 25.52,17.456 24.725,17.456C23.348,17.456 22.239,17.93 20.958,18.478Z" style="fill:white;fill-rule:nonzero;"/>
    <path d="M8.638,12.076L8.662,12.099L8.679,12.109C8.666,12.097 8.652,12.086 8.638,12.076Z" style="fill:white;fill-rule:nonzero;"/>
    <path d="M33.685,10.691L33.465,9.581C33.267,8.585 32.819,7.644 31.796,7.284C31.469,7.169 31.097,7.119 30.846,6.881C30.594,6.642 30.52,6.272 30.462,5.929C30.354,5.299 30.253,4.668 30.143,4.039C30.048,3.498 29.972,2.891 29.724,2.394C29.401,1.728 28.731,1.339 28.065,1.081C27.724,0.953 27.375,0.846 27.022,0.758C25.357,0.319 23.607,0.157 21.895,0.065C19.84,-0.048 17.779,-0.014 15.729,0.168C14.203,0.306 12.595,0.474 11.145,1.002C10.615,1.195 10.069,1.427 9.666,1.837C9.171,2.34 9.01,3.118 9.371,3.746C9.627,4.191 10.062,4.506 10.523,4.714C11.124,4.983 11.751,5.187 12.395,5.323C14.187,5.719 16.043,5.875 17.874,5.941C19.903,6.023 21.935,5.957 23.954,5.743C24.454,5.688 24.952,5.622 25.45,5.545C26.036,5.455 26.412,4.689 26.239,4.155C26.033,3.517 25.477,3.269 24.849,3.366C24.757,3.38 24.665,3.394 24.572,3.407L24.505,3.417C24.293,3.444 24.08,3.469 23.867,3.492C23.428,3.539 22.987,3.578 22.546,3.608C21.556,3.677 20.565,3.709 19.574,3.711C18.599,3.711 17.625,3.683 16.653,3.619C16.21,3.59 15.767,3.553 15.326,3.508C15.125,3.487 14.925,3.465 14.725,3.44L14.535,3.416L14.493,3.41L14.296,3.382C13.892,3.321 13.488,3.251 13.089,3.167C13.049,3.158 13.013,3.135 12.987,3.103C12.961,3.071 12.947,3.031 12.947,2.99C12.947,2.948 12.961,2.908 12.987,2.876C13.013,2.844 13.049,2.821 13.089,2.812L13.097,2.812C13.443,2.739 13.791,2.676 14.141,2.621C14.258,2.603 14.375,2.585 14.492,2.567L14.495,2.567C14.714,2.553 14.934,2.513 15.152,2.487C17.048,2.29 18.956,2.223 20.861,2.286C21.786,2.313 22.711,2.367 23.631,2.461C23.829,2.482 24.026,2.503 24.223,2.527C24.299,2.536 24.375,2.547 24.451,2.556L24.603,2.578C25.049,2.645 25.492,2.725 25.933,2.82C26.586,2.962 27.425,3.008 27.716,3.724C27.808,3.951 27.85,4.204 27.901,4.442L27.967,4.746C27.968,4.751 27.97,4.757 27.97,4.763C28.124,5.48 28.278,6.198 28.433,6.915C28.444,6.968 28.444,7.023 28.433,7.076C28.423,7.129 28.401,7.179 28.37,7.224C28.339,7.268 28.299,7.306 28.253,7.334C28.206,7.362 28.155,7.381 28.101,7.388L28.097,7.388L28.003,7.401L27.91,7.413C27.615,7.452 27.319,7.488 27.024,7.521C26.442,7.587 25.858,7.645 25.274,7.693C24.114,7.79 22.951,7.853 21.786,7.883C21.192,7.899 20.598,7.906 20.005,7.905C17.643,7.903 15.283,7.766 12.937,7.494C12.683,7.464 12.429,7.432 12.175,7.399C12.372,7.424 12.032,7.38 11.963,7.37C11.802,7.347 11.641,7.324 11.479,7.299C10.937,7.218 10.399,7.118 9.858,7.03C9.204,6.923 8.579,6.976 7.987,7.299C7.502,7.565 7.109,7.972 6.861,8.467C6.606,8.994 6.53,9.569 6.416,10.135C6.302,10.702 6.124,11.312 6.191,11.893C6.336,13.149 7.214,14.169 8.476,14.397C9.664,14.612 10.858,14.787 12.055,14.935C16.759,15.511 21.51,15.58 26.228,15.141C26.613,15.105 26.996,15.066 27.379,15.024C27.499,15.01 27.62,15.024 27.734,15.064C27.848,15.104 27.951,15.168 28.036,15.253C28.122,15.338 28.187,15.441 28.228,15.554C28.268,15.667 28.283,15.788 28.271,15.908L28.151,17.069C27.91,19.416 27.67,21.762 27.429,24.109C27.178,26.573 26.925,29.036 26.671,31.5C26.599,32.194 26.527,32.887 26.456,33.581C26.387,34.264 26.377,34.968 26.247,35.643C26.043,36.704 25.324,37.356 24.276,37.594C23.316,37.813 22.335,37.927 21.35,37.936C20.258,37.942 19.167,37.894 18.075,37.9C16.909,37.906 15.482,37.799 14.582,36.931C13.791,36.169 13.682,34.976 13.575,33.944C13.431,32.579 13.289,31.213 13.148,29.848L12.357,22.255L11.845,17.343C11.836,17.262 11.828,17.181 11.82,17.1C11.758,16.514 11.343,15.94 10.69,15.97C10.13,15.994 9.494,16.47 9.56,17.1L9.939,20.742L10.724,28.275C10.947,30.415 11.17,32.555 11.392,34.696C11.435,35.106 11.476,35.517 11.521,35.927C11.767,38.168 13.478,39.376 15.597,39.716C16.835,39.915 18.103,39.956 19.359,39.976C20.969,40.002 22.595,40.064 24.179,39.772C26.526,39.342 28.286,37.775 28.538,35.344C28.609,34.642 28.681,33.941 28.753,33.238C28.991,30.917 29.23,28.595 29.467,26.272L30.246,18.685L30.602,15.208C30.62,15.035 30.693,14.873 30.81,14.745C30.927,14.617 31.082,14.531 31.252,14.498C31.923,14.367 32.565,14.144 33.042,13.633C33.802,12.82 33.953,11.76 33.685,10.691ZM8.442,11.441C8.452,11.436 8.433,11.524 8.425,11.565C8.424,11.503 8.427,11.448 8.442,11.441ZM8.507,11.945C8.512,11.941 8.529,11.963 8.545,11.989C8.52,11.965 8.504,11.947 8.506,11.945L8.507,11.945ZM8.571,12.029C8.594,12.069 8.607,12.093 8.571,12.029ZM8.699,12.134L8.703,12.134C8.703,12.138 8.709,12.141 8.711,12.145C8.707,12.141 8.703,12.137 8.699,12.134ZM31.221,11.978C30.98,12.207 30.617,12.314 30.258,12.367C26.233,12.964 22.149,13.267 18.08,13.133C15.167,13.034 12.286,12.71 9.402,12.303C9.12,12.263 8.814,12.211 8.619,12.003C8.254,11.61 8.433,10.819 8.529,10.345C8.616,9.91 8.783,9.33 9.3,9.268C10.107,9.174 11.044,9.514 11.843,9.635C12.804,9.782 13.769,9.9 14.738,9.988C18.872,10.365 23.075,10.306 27.191,9.755C27.941,9.654 28.688,9.537 29.433,9.403C30.096,9.284 30.832,9.061 31.233,9.748C31.508,10.217 31.545,10.843 31.502,11.372C31.489,11.602 31.388,11.819 31.221,11.978Z" style="fill:white;fill-rule:nonzero;"/>
</svg>
