<svg id="svg" version="1.1" xmlns="http://www.w3.org/2000/svg" xmlns:xlink="http://www.w3.org/1999/xlink" width="400" height="86.39999999999999" viewBox="0, 0, 400,86.39999999999999"><g id="svgg"><path id="path0" d="M40.865 22.488 C 43.040 24.503,44.630 26.629,46.330 29.798 L 47.250 31.512 52.136 33.921 C 56.262 35.956,57.004 36.273,56.906 35.957 C 54.758 29.042,47.431 22.650,40.229 21.412 L 39.583 21.301 40.865 22.488 M10.170 23.010 C 2.898 23.914,1.852 28.547,7.124 36.500 C 12.285 44.286,23.448 54.496,36.917 63.749 L 38.583 64.894 35.823 62.211 C 11.881 38.948,20.442 25.609,52.498 36.232 C 53.734 36.642,54.768 36.955,54.795 36.927 C 54.870 36.852,48.609 33.787,45.844 32.545 C 30.696 25.739,17.212 22.136,10.170 23.010 M48.892 36.942 C 51.276 45.004,48.137 56.547,41.770 63.126 C 39.533 65.438,41.327 65.513,45.750 63.291 C 53.445 59.426,58.068 51.908,58.072 43.250 C 58.074 39.794,58.070 39.780,56.875 39.329 C 55.163 38.682,52.619 37.808,51.000 37.311 C 50.129 37.044,49.278 36.782,49.109 36.729 C 48.868 36.655,48.820 36.702,48.892 36.942 " stroke="none" fill="#050505" fill-rule="evenodd"></path><path id="path1" d="M30.750 19.060 C 28.087 19.669,25.408 20.689,23.508 21.817 C 22.222 22.581,22.113 22.598,20.635 22.258 C 8.864 19.550,1.114 22.635,2.326 29.548 C 2.996 33.363,7.036 40.197,10.566 43.487 C 10.844 43.746,11.000 44.068,11.000 44.383 C 11.000 45.990,11.911 50.304,12.591 51.917 C 13.538 54.161,13.811 54.734,14.457 55.833 C 19.246 63.979,28.625 68.803,37.827 67.854 L 39.811 67.650 41.197 68.552 C 48.404 73.244,49.821 73.989,50.414 73.396 C 50.880 72.930,50.634 72.474,49.417 71.545 C 47.656 70.202,44.345 67.631,43.853 67.223 L 43.418 66.863 43.834 66.693 C 54.589 62.281,60.500 53.933,60.500 43.154 L 60.500 40.852 62.042 41.523 C 64.243 42.482,64.441 42.571,65.867 43.235 C 67.664 44.072,68.333 44.004,68.333 42.983 C 68.333 42.640,68.184 42.444,67.708 42.161 C 66.542 41.467,61.754 38.746,61.000 38.349 C 59.957 37.800,59.967 37.816,59.264 35.583 C 56.701 27.448,50.178 21.505,41.201 19.128 C 39.128 18.579,33.030 18.539,30.750 19.060 M42.274 21.928 C 48.800 23.819,54.975 29.741,56.906 35.957 C 57.004 36.273,56.262 35.956,52.136 33.921 L 47.250 31.512 46.330 29.798 C 44.630 26.629,43.040 24.503,40.865 22.488 L 39.583 21.301 40.229 21.412 C 40.585 21.473,41.505 21.705,42.274 21.928 M17.065 23.264 C 24.376 24.197,34.604 27.495,45.844 32.545 C 48.609 33.787,54.870 36.852,54.795 36.927 C 54.768 36.955,53.734 36.642,52.498 36.232 C 20.442 25.609,11.881 38.948,35.823 62.211 L 38.583 64.894 36.917 63.749 C 21.647 53.258,9.389 41.536,5.375 33.583 C 1.254 25.419,5.383 21.774,17.065 23.264 M82.263 25.343 C 70.931 27.240,69.625 42.869,80.500 46.434 L 81.917 46.899 89.334 46.991 L 96.751 47.083 97.532 47.578 C 99.260 48.672,99.570 51.142,98.141 52.438 C 97.213 53.278,97.717 53.245,84.599 53.333 L 72.282 53.417 71.412 55.358 C 70.933 56.426,70.044 58.125,69.437 59.133 C 68.830 60.140,68.333 61.010,68.333 61.066 C 68.333 61.246,96.840 61.177,97.968 60.994 C 106.091 59.675,109.841 50.702,105.165 43.774 C 102.693 40.111,100.185 39.335,90.799 39.329 C 87.289 39.327,84.130 39.259,83.781 39.178 C 81.035 38.540,80.357 35.196,82.647 33.586 L 83.362 33.083 93.809 33.038 L 104.256 32.993 104.568 31.871 C 104.740 31.255,105.245 29.528,105.690 28.035 C 106.136 26.542,106.500 25.286,106.500 25.243 C 106.500 25.106,83.106 25.202,82.263 25.343 M152.667 29.674 C 151.521 30.030,150.190 30.404,149.708 30.506 L 148.833 30.690 148.833 43.678 L 148.833 56.667 152.000 56.667 L 155.167 56.667 155.167 51.735 L 155.167 46.804 155.708 47.257 C 156.006 47.507,158.303 49.726,160.812 52.189 L 165.375 56.667 170.061 56.667 L 174.748 56.667 173.582 55.532 C 172.941 54.907,171.779 53.805,171.000 53.083 C 170.221 52.360,168.308 50.558,166.750 49.078 C 165.192 47.598,163.071 45.610,162.036 44.661 L 160.156 42.935 160.536 42.573 C 160.746 42.374,162.417 40.802,164.250 39.079 C 166.083 37.357,168.888 34.703,170.482 33.182 C 172.077 31.661,173.520 30.319,173.691 30.199 C 174.366 29.724,173.940 29.667,169.725 29.667 L 165.451 29.667 161.600 33.484 C 159.483 35.584,157.188 37.830,156.500 38.476 L 155.250 39.649 155.206 34.325 C 155.172 30.222,155.115 29.003,154.956 29.014 C 154.843 29.021,153.813 29.319,152.667 29.674 M180.917 29.684 C 179.725 30.042,178.394 30.416,177.958 30.515 L 177.167 30.694 177.167 43.680 L 177.167 56.667 180.248 56.667 L 183.328 56.667 183.373 51.677 L 183.417 46.687 184.417 47.627 C 184.967 48.144,187.271 50.389,189.538 52.617 L 193.659 56.667 198.371 56.662 L 203.083 56.658 202.417 56.055 C 202.050 55.723,201.037 54.765,200.167 53.925 C 199.296 53.085,197.946 51.806,197.167 51.082 C 196.387 50.359,194.475 48.557,192.917 47.078 C 191.358 45.600,189.720 44.061,189.275 43.659 L 188.468 42.928 189.859 41.610 C 190.624 40.885,192.338 39.274,193.667 38.031 C 194.996 36.787,197.329 34.580,198.851 33.126 C 202.251 29.877,202.313 29.830,202.616 30.262 C 202.740 30.439,203.308 31.237,203.879 32.035 C 205.742 34.642,208.236 38.172,208.917 39.166 C 209.627 40.203,210.574 41.538,213.198 45.197 L 214.833 47.477 214.833 52.072 L 214.833 56.667 217.917 56.667 L 221.000 56.667 221.001 52.125 L 221.001 47.583 221.691 46.673 C 222.071 46.173,222.614 45.411,222.899 44.981 C 223.184 44.551,223.760 43.723,224.180 43.141 C 225.554 41.236,230.739 33.932,231.203 33.250 C 231.452 32.883,232.108 31.946,232.661 31.167 C 233.213 30.387,233.666 29.731,233.666 29.708 C 233.666 29.685,232.022 29.667,230.012 29.667 L 226.357 29.667 222.328 35.708 C 220.111 39.031,218.209 41.845,218.099 41.960 C 217.943 42.126,217.473 41.525,215.884 39.127 C 214.775 37.453,213.188 35.071,212.358 33.833 C 211.527 32.596,210.564 31.154,210.216 30.629 L 209.583 29.675 201.694 29.671 L 193.805 29.667 188.611 34.752 L 183.417 39.836 183.373 34.418 C 183.349 31.438,183.274 29.007,183.206 29.016 C 183.139 29.025,182.108 29.326,180.917 29.684 M336.083 29.595 C 335.075 29.903,333.744 30.280,333.125 30.433 L 332.000 30.712 332.003 38.981 C 332.006 48.998,332.140 49.935,333.914 52.421 C 338.571 58.948,353.066 59.001,357.856 52.509 C 359.658 50.067,359.831 48.815,359.832 38.208 L 359.833 29.667 356.667 29.667 L 353.500 29.667 353.500 38.307 C 353.500 47.664,353.483 47.869,352.584 49.165 C 350.329 52.419,340.667 52.009,338.857 48.583 L 338.417 47.750 338.370 38.375 C 338.333 31.130,338.277 29.004,338.120 29.018 C 338.008 29.028,337.092 29.288,336.083 29.595 M310.440 29.433 C 303.014 30.775,298.975 35.613,298.975 43.167 C 298.975 52.320,305.238 57.809,315.080 57.282 C 325.259 56.736,330.879 50.026,329.260 40.347 C 327.910 32.273,320.027 27.701,310.440 29.433 M110.833 43.167 L 110.833 56.667 114.000 56.667 L 117.167 56.667 117.167 43.167 L 117.167 29.667 114.000 29.667 L 110.833 29.667 110.833 43.167 M122.000 43.168 L 122.000 56.669 133.369 56.626 L 144.738 56.583 144.888 56.000 C 144.971 55.679,145.330 54.437,145.686 53.240 C 146.042 52.043,146.333 51.011,146.333 50.948 C 146.333 50.885,142.283 50.833,137.333 50.833 L 128.333 50.833 128.333 40.250 L 128.333 29.667 125.167 29.667 L 122.000 29.667 122.000 43.168 M252.662 29.829 C 241.176 31.312,239.601 52.069,250.667 56.117 L 251.917 56.575 260.450 56.628 L 268.984 56.681 269.586 54.715 C 269.917 53.634,270.295 52.418,270.427 52.012 C 270.559 51.606,270.667 51.175,270.667 51.054 C 270.667 50.874,269.134 50.832,262.375 50.826 C 253.426 50.818,253.416 50.817,252.232 49.914 C 248.721 47.236,249.221 38.096,252.986 36.129 L 253.871 35.667 261.424 35.667 C 268.474 35.667,268.983 35.647,269.062 35.375 C 269.109 35.215,269.489 33.947,269.907 32.558 C 270.325 31.169,270.667 29.950,270.667 29.849 C 270.667 29.642,254.259 29.623,252.662 29.829 M273.500 43.167 L 273.500 56.667 284.892 56.667 L 296.285 56.667 296.654 55.375 C 296.857 54.665,297.233 53.371,297.490 52.500 L 297.957 50.917 288.895 50.874 L 279.833 50.830 279.833 40.249 L 279.833 29.667 276.667 29.667 L 273.500 29.667 273.500 43.167 M365.791 29.779 C 365.749 29.855,365.511 30.667,365.261 31.583 C 365.012 32.500,364.664 33.696,364.487 34.241 C 364.311 34.786,364.167 35.329,364.167 35.449 C 364.167 35.625,365.770 35.667,372.589 35.667 L 381.011 35.667 381.812 36.073 C 386.220 38.306,386.066 48.355,381.593 50.438 C 380.766 50.823,380.656 50.830,375.625 50.832 L 370.500 50.833 370.500 44.250 C 370.500 40.629,370.455 37.667,370.401 37.667 C 370.346 37.667,369.803 37.809,369.193 37.984 C 368.582 38.159,367.202 38.544,366.125 38.841 L 364.167 39.380 364.167 48.030 L 364.167 56.680 373.625 56.629 L 383.083 56.578 384.265 56.141 C 394.521 52.352,393.990 33.388,383.536 30.124 C 382.353 29.754,365.983 29.437,365.791 29.779 M318.167 35.650 C 324.088 37.498,324.839 47.742,319.246 50.360 C 316.364 51.708,311.606 51.654,308.815 50.241 C 304.269 47.938,304.338 38.443,308.919 36.120 C 311.060 35.035,315.476 34.810,318.167 35.650 M51.000 37.311 C 52.619 37.808,55.163 38.682,56.875 39.329 C 58.070 39.780,58.074 39.794,58.072 43.250 C 58.067 53.027,52.071 61.398,42.866 64.481 C 41.083 65.077,41.183 65.065,40.761 64.746 C 40.454 64.513,40.502 64.437,41.770 63.126 C 48.137 56.547,51.276 45.004,48.892 36.942 C 48.820 36.702,48.868 36.655,49.109 36.729 C 49.278 36.782,50.129 37.044,51.000 37.311 M231.500 53.750 L 231.500 56.667 234.583 56.667 L 237.667 56.667 237.667 53.750 L 237.667 50.833 234.583 50.833 L 231.500 50.833 231.500 53.750 M108.531 62.922 C 107.927 63.053,106.332 63.713,104.781 64.474 C 100.492 66.578,102.887 66.363,82.583 66.472 L 64.917 66.567 63.782 67.763 L 62.648 68.959 80.115 69.085 C 102.420 69.245,100.605 69.398,106.135 66.889 C 107.482 66.278,109.033 65.662,109.583 65.520 C 110.481 65.288,124.989 65.253,250.917 65.173 L 391.250 65.083 392.255 64.417 C 392.807 64.050,393.613 63.563,394.046 63.334 C 394.479 63.105,394.833 62.861,394.833 62.792 C 394.833 62.539,109.697 62.668,108.531 62.922 " stroke="none" fill="#fbfbfb" fill-rule="evenodd"></path></g></svg>